<svg id="Layer_1" data-name="Layer 1" xmlns="http://www.w3.org/2000/svg" viewBox="0 0 77.53 100.74"><defs><style>.cls-1{fill:none;stroke:#000;stroke-linecap:round;stroke-linejoin:round;stroke-width:7.13px;}.cls-2{fill:#fff;}</style></defs><title>license</title><path class="cls-1" d="M25.58,99.21H18.29a5.15,5.15,0,0,1-5.2-5.09V22.7a5.15,5.15,0,0,1,5.2-5.09h60a5.15,5.15,0,0,1,5.2,5.09V94.14a5.15,5.15,0,0,1-5.2,5.09H56.64" transform="translate(-9.53 -14.04)"/><line class="cls-1" x1="17.74" y1="36.01" x2="45.59" y2="36.01"/><line class="cls-1" x1="17.74" y1="20.52" x2="59.78" y2="20.52"/><path d="M47.17,114.67l-10.5-6.88a0.73,0.73,0,0,0-.8,0l-10.5,6.88a0.72,0.72,0,0,1-1-.19,0.69,0.69,0,0,1-.12-0.4V73.37a0.71,0.71,0,0,1,.72-0.7H47.53a0.71,0.71,0,0,1,.72.7h0v40.71a0.71,0.71,0,0,1-.74.68A0.73,0.73,0,0,1,47.17,114.67Z" transform="translate(-9.53 -14.04)"/><path class="cls-2" d="M36.29,62.43c0-7.87,13.66-3.15,8.19,2.85,5.46-6,12.72,6.05,4.35,7.22,8.36-1.17,5.84,12.51-1.51,8.2,7.35,4.31-3.77,13.23-6.68,5.35,2.9,7.87-11.62,7.87-8.71,0-2.9,7.87-14-1-6.68-5.35-7.35,4.31-9.87-9.38-1.51-8.2-8.36-1.17-1.1-13.2,4.35-7.22C22.63,59.29,36.29,54.55,36.29,62.43Z" transform="translate(-9.53 -14.04)"/><path d="M36.29,65.14c0-6.59,11.42-2.61,6.85,2.36,4.56-5,10.64,5.06,3.65,6,7-1,4.89,10.47-1.27,6.87,6.15,3.61-3.15,11.07-5.58,4.48,2.41,6.59-9.71,6.59-7.29,0-2.41,6.59-11.73-.88-5.58-4.48-6.15,3.61-8.26-7.87-1.27-6.87-7-1-.92-11,3.65-6C24.87,62.53,36.29,58.55,36.29,65.14Z" transform="translate(-9.53 -14.04)"/><ellipse class="cls-2" cx="26.76" cy="61.72" rx="7.06" ry="6.76"/></svg>